<?xml version="1.0" encoding="UTF-8" standalone="no"?>
<!-- Created with Inkscape (http://www.inkscape.org/) -->

<svg
   width="35.390568mm"
   height="35.471546mm"
   viewBox="0 0 35.390568 35.471546"
   version="1.1"
   id="svg5"
   xml:space="preserve"
   sodipodi:docname="logo.svg"
   inkscape:version="1.2 (dc2aedaf03, 2022-05-15)"
   xmlns:inkscape="http://www.inkscape.org/namespaces/inkscape"
   xmlns:sodipodi="http://sodipodi.sourceforge.net/DTD/sodipodi-0.dtd"
   xmlns="http://www.w3.org/2000/svg"
   xmlns:svg="http://www.w3.org/2000/svg"><sodipodi:namedview
     id="namedview7"
     pagecolor="#505050"
     bordercolor="#eeeeee"
     borderopacity="1"
     inkscape:showpageshadow="0"
     inkscape:pageopacity="0"
     inkscape:pagecheckerboard="0"
     inkscape:deskcolor="#505050"
     inkscape:document-units="mm"
     showgrid="false"
     inkscape:zoom="3.0787879"
     inkscape:cx="-2.7608268"
     inkscape:cy="54.729331"
     inkscape:window-width="1920"
     inkscape:window-height="1051"
     inkscape:window-x="-9"
     inkscape:window-y="-9"
     inkscape:window-maximized="1"
     inkscape:current-layer="layer1" /><defs
     id="defs2" /><g
     inkscape:label="Layer 1"
     inkscape:groupmode="layer"
     id="layer1"
     transform="translate(-85.597613,-49.010427)"><path
       style="fill:#72505e;fill-opacity:1;stroke-width:0.0846667"
       d="m 105.19795,84.385986 c -0.37826,-0.211369 -0.59605,-0.615446 -0.81325,-1.508896 -0.15547,-0.639511 -0.14247,-4.114667 0.0167,-4.474346 0.12887,-0.291121 0.66383,-0.665698 1.05575,-0.739222 0.37698,-0.07072 0.81889,0.162668 0.78318,0.413622 -0.0221,0.155495 -0.0745,0.182264 -0.32275,0.164978 -1.00904,-0.07026 -1.10394,0.107867 -1.16093,2.179054 -0.0772,2.805045 0.38499,3.909367 1.39381,3.330383 0.42795,-0.24561 0.71747,0.04452 0.38095,0.381759 -0.32792,0.32862 -0.97736,0.451673 -1.3335,0.252668 z m -4.90264,-0.05658 c -0.0767,-0.124115 -0.17736,-2.942344 -0.17736,-4.965987 0,-1.636888 0.006,-1.693333 0.16934,-1.693333 0.15182,0 0.1749,0.07441 0.22324,0.719667 0.0297,0.395816 0.0833,1.776941 0.11919,3.069166 0.0441,1.588789 0.0952,2.353559 0.15776,2.362036 0.0509,0.0069 0.14962,0.0203 0.21947,0.0298 0.0699,0.0095 0.19368,0.0229 0.27517,0.0298 0.0983,0.0083 0.14817,0.08383 0.14817,0.224202 0,0.183967 -0.0374,0.211667 -0.28575,0.211667 -0.15717,0 -0.4002,0.02289 -0.54007,0.05086 -0.14263,0.02853 -0.2784,0.01189 -0.30916,-0.03787 z m 2.16694,-0.03609 c -0.13146,-0.158404 -0.25352,-6.528739 -0.1266,-6.607184 0.0471,-0.02913 0.14619,-0.0066 0.22013,0.05016 0.11515,0.08833 0.14692,0.526782 0.22148,3.056744 0.0479,1.624493 0.10415,2.970721 0.12505,2.991619 0.0209,0.0209 0.19354,0.05886 0.38365,0.08436 0.29408,0.03944 0.34566,0.07628 0.34566,0.246881 0,0.179278 -0.0381,0.200642 -0.35983,0.201674 -0.19791,6.78e-4 -0.4387,0.02234 -0.53509,0.04822 -0.0997,0.02678 -0.21801,-0.0045 -0.27445,-0.07248 z M 98.25937,76.03195 c -0.08753,-0.275786 -0.850561,-0.813001 -1.443417,-1.016244 -0.695605,-0.238468 -1.680123,-0.174588 -2.56515,0.166437 -0.378761,0.145947 -1.195962,0.08191 -1.865629,-0.146206 -1.077668,-0.367088 -1.046879,-0.462999 0.218612,-0.680978 0.574809,-0.09901 0.867834,-0.186353 0.867834,-0.258679 0,-0.133295 0.09117,-0.122129 -1.185334,-0.145176 -0.838728,-0.01514 -1.169478,-0.05795 -1.593967,-0.206309 -0.753494,-0.263343 -1.623366,-0.836496 -1.623366,-1.069626 0,-0.153986 1.410923,-0.05567 1.835206,0.127878 0.343191,0.14847 0.357771,0.148269 0.498148,-0.0068 0.07954,-0.08789 0.177182,-0.139662 0.216991,-0.115058 0.121687,0.07521 -0.02516,-0.248807 -0.201836,-0.44534 -0.248736,-0.276695 -0.489033,-1.074298 -0.40903,-1.357668 0.03655,-0.129462 0.05126,-0.279519 0.03269,-0.33346 -0.0517,-0.150141 0.136434,-0.225688 0.27521,-0.110515 0.06781,0.05628 0.123291,0.216034 0.123291,0.355015 0,0.171738 0.03504,0.239245 0.109381,0.210718 0.06016,-0.02308 0.174494,0.0056 0.254078,0.06383 0.170366,0.124575 0.649919,1.040213 0.651469,1.243889 0.0011,0.147013 0.42877,1.016888 0.630479,1.282444 0.122387,0.161127 0.605614,0.268118 0.678478,0.150222 0.07459,-0.120695 -0.281257,-0.750897 -0.632483,-1.120112 -0.501704,-0.527404 -0.747497,-1.088424 -0.476857,-1.088424 0.06263,0 0.179737,0.07277 0.260231,0.161719 0.08049,0.08894 0.238799,0.184921 0.351789,0.21328 0.201094,0.05047 0.246836,0.161275 0.21692,0.525463 -0.01929,0.234837 0.211233,0.328975 0.268579,0.109679 0.107316,-0.410375 0.594435,0.08245 1.187604,1.201528 0.286227,0.539998 0.286227,0.539998 0.912114,0.733677 0.344236,0.106524 0.759235,0.234969 0.922219,0.285434 0.496138,0.153619 1.137107,0.465199 1.390496,0.675931 0.712149,0.59226 0.794831,0.749955 0.393209,0.749955 -0.167129,0 -0.264528,-0.05115 -0.297955,-0.156466 z m -3.941084,-1.494533 c 0,-0.06985 -0.0381,-0.127 -0.08467,-0.127 -0.04657,0 -0.08467,0.05715 -0.08467,0.127 0,0.06985 0.0381,0.127 0.08467,0.127 0.04657,0 0.08467,-0.05715 0.08467,-0.127 z m 13.462004,1.562485 c 0,-0.08891 0.19566,-0.290658 0.6415,-0.661441 0.25339,-0.210732 0.89436,-0.522312 1.3905,-0.675931 0.16298,-0.05046 0.57798,-0.17891 0.92222,-0.285434 0.62588,-0.193679 0.62588,-0.193679 0.91211,-0.733677 0.3384,-0.638427 0.59568,-1.014371 0.83081,-1.214019 0.22345,-0.189719 0.30466,-0.186876 0.35679,0.01249 0.0573,0.219296 0.28787,0.125158 0.26858,-0.109679 -0.0299,-0.364188 0.0158,-0.474992 0.21692,-0.525463 0.11299,-0.02836 0.2713,-0.124335 0.35179,-0.21328 0.0805,-0.08895 0.1976,-0.161719 0.26023,-0.161719 0.27064,0 0.0249,0.56102 -0.47685,1.08842 -0.35123,0.369215 -0.70708,0.999417 -0.63249,1.120112 0.0729,0.117895 0.55609,0.0109 0.67848,-0.150222 0.20171,-0.265556 0.62936,-1.135431 0.63048,-1.282444 0.002,-0.203676 0.4811,-1.119314 0.65147,-1.243889 0.0796,-0.05819 0.19392,-0.08692 0.25408,-0.06383 0.0743,0.02853 0.10938,-0.03898 0.10938,-0.210719 0,-0.13898 0.0555,-0.298736 0.12329,-0.355014 0.13877,-0.115174 0.32691,-0.03963 0.27521,0.110515 -0.0186,0.05394 -0.004,0.203998 0.0327,0.33346 0.08,0.283369 -0.16029,1.080972 -0.40903,1.357668 -0.17667,0.196533 -0.32352,0.520546 -0.20183,0.44534 0.0398,-0.0246 0.13745,0.02717 0.21699,0.115058 0.14038,0.155114 0.15496,0.155315 0.49815,0.0068 0.42428,-0.183546 1.8352,-0.28186 1.8352,-0.127874 0,0.23313 -0.86987,0.806283 -1.62336,1.069626 -0.42449,0.148357 -0.75524,0.191167 -1.59397,0.206309 -1.2765,0.02305 -1.18533,0.01188 -1.18533,0.145176 0,0.07233 0.29302,0.159669 0.86783,0.258679 1.26549,0.217979 1.29628,0.31389 0.21861,0.680978 -0.66967,0.228111 -1.48687,0.292153 -1.86563,0.146206 -0.88502,-0.341025 -1.86954,-0.404905 -2.56515,-0.166437 -0.59285,0.203243 -1.35588,0.740458 -1.44341,1.016244 -0.0537,0.169067 -0.54625,0.230343 -0.54625,0.06795 z m 4.65666,-1.562485 c 0,-0.06985 -0.0381,-0.127 -0.0847,-0.127 -0.0466,0 -0.0847,0.05715 -0.0847,0.127 0,0.06985 0.0381,0.127 0.0847,0.127 0.0466,0 0.0847,-0.05715 0.0847,-0.127 z m -11.938,-0.80796 c -0.0698,-0.04308 -0.3556,-0.210231 -0.634997,-0.371435 -0.643898,-0.371508 -0.88864,-0.590349 -1.181516,-1.056478 -0.192931,-0.307059 -0.226972,-0.439925 -0.192062,-0.749646 0.02334,-0.207042 0.124608,-0.48759 0.225047,-0.623441 0.183979,-0.248846 0.172554,-0.412707 -0.02878,-0.412707 -0.267257,0 -1.574358,-1.746983 -1.574358,-2.10418 0,-0.228482 0.310619,-0.457688 0.938444,-0.692479 0.607272,-0.227104 0.717571,-0.189939 0.890538,0.300067 0.18151,0.514204 0.390042,1.910081 0.331762,2.220743 -0.04615,0.246025 -0.03074,0.276 0.142587,0.277242 0.361708,0.0026 0.860695,0.358557 1.062175,0.757729 0.15499,0.307086 0.19087,0.520036 0.19252,1.142651 0.001,0.420875 0.0352,0.908102 0.0757,1.082727 0.0769,0.331227 0.0136,0.389991 -0.24711,0.229207 z m -9.755502,-1.31358 c -0.126778,-0.0688 -0.536396,-0.178496 -0.910263,-0.243765 -0.373866,-0.06527 -0.808036,-0.197951 -0.964822,-0.294849 -0.156785,-0.0969 -0.343138,-0.17618 -0.414117,-0.17618 -0.144544,0 -1.078627,-0.971666 -1.078627,-1.122026 0,-0.05301 -0.101997,-0.202837 -0.226661,-0.332957 -0.124663,-0.130121 -0.200027,-0.263216 -0.167475,-0.295769 0.05077,-0.05077 0.461012,0.124629 0.902136,0.385705 0.183669,0.108703 0.945692,0.278245 1.001184,0.222753 0.07733,-0.07733 -0.168095,-0.266014 -0.662517,-0.509344 -0.256117,-0.126047 -0.592917,-0.291769 -0.748446,-0.368269 -0.377976,-0.185917 -0.774605,-0.635313 -1.140173,-1.291861 -0.549048,-0.98607 -0.501357,-1.22521 0.154465,-0.77455 0.185435,0.127425 0.499079,0.314656 0.696987,0.416069 0.578214,0.296291 0.453011,0.02839 -0.353878,-0.757206 -0.692757,-0.674475 -1.064288,-1.259396 -1.064288,-1.675564 0,-0.08927 -0.0381,-0.162313 -0.08467,-0.162313 -0.04776,0 -0.08467,-0.239889 -0.08467,-0.550334 0,-0.348323 0.03466,-0.550333 0.09442,-0.550333 0.250717,0 1.514252,1.725851 1.514252,2.068304 0,0.105298 0.07286,0.257388 0.161909,0.337977 0.157573,0.142601 0.163416,0.131049 0.21821,-0.431378 0.03097,-0.317847 0.09483,-0.711253 0.141911,-0.874236 0.114642,-0.396837 0.496258,-1.166498 0.635794,-1.282303 0.0617,-0.0512 0.112176,-0.13278 0.112176,-0.181282 0,-0.148351 0.282294,-0.737749 0.353348,-0.737749 0.124342,0 0.174219,0.424662 0.117067,0.996746 -0.08194,0.820182 -0.328124,1.588025 -0.657678,2.051254 -0.08282,0.116417 -0.206722,0.428004 -0.275334,0.692416 -0.122906,0.473649 -0.212595,1.708253 -0.13007,1.79046 0.02328,0.0232 0.146586,0.02214 0.274005,-0.0023 0.23164,-0.0445 0.231669,-0.0446 0.214091,-0.733356 -0.01306,-0.511852 0.02883,-0.83026 0.163022,-1.239185 0.09933,-0.302684 0.204376,-0.65764 0.233434,-0.788792 0.08792,-0.396834 0.327749,-0.258979 0.416563,0.239444 0.103772,0.582365 0.10058,0.79353 -0.02815,1.861681 -0.148365,1.231101 -0.121556,1.786361 0.104224,2.158716 0.09892,0.163139 0.22957,0.327085 0.290332,0.364324 0.06076,0.03724 0.110476,0.125215 0.110476,0.1955 0,0.07028 0.03685,0.105013 0.08189,0.07718 0.106451,-0.06579 0.02743,-0.502387 -0.171099,-0.945313 -0.21527,-0.48028 -0.187498,-1.750148 0.03924,-1.794264 0.09185,-0.01787 0.163896,0.03748 0.192841,0.148167 0.02541,0.09718 0.07408,0.176696 0.108141,0.176696 0.06186,0 0.209516,0.318774 0.459357,0.991731 0.07284,0.196202 0.157612,0.729602 0.188379,1.185333 0.05706,0.845225 0.134107,1.095611 0.447835,1.455391 0.332627,0.381454 0.187863,0.545307 -0.264759,0.299672 z m 24.656842,0.01783 c 0,-0.06273 0.0798,-0.2056 0.17741,-0.3175 0.31373,-0.35978 0.39077,-0.610166 0.44783,-1.455391 0.0308,-0.455731 0.11554,-0.989131 0.18838,-1.185333 0.24984,-0.672957 0.3975,-0.991731 0.45936,-0.991731 0.0341,0 0.0827,-0.07951 0.10814,-0.176696 0.029,-0.110687 0.10099,-0.166039 0.19284,-0.148167 0.22674,0.04412 0.25451,1.313984 0.0392,1.794264 -0.19853,0.442926 -0.27755,0.879523 -0.1711,0.945313 0.045,0.02784 0.0819,-0.0069 0.0819,-0.07718 0,-0.07029 0.0497,-0.158258 0.11047,-0.195497 0.0608,-0.03724 0.19141,-0.201185 0.29034,-0.364324 0.22577,-0.372355 0.25258,-0.927616 0.10422,-2.158717 -0.12873,-1.068151 -0.13192,-1.279315 -0.0282,-1.861681 0.0888,-0.498422 0.32864,-0.636277 0.41656,-0.239444 0.0291,0.131152 0.13411,0.486109 0.23344,0.788792 0.1342,0.408926 0.17608,0.727333 0.16302,1.239186 -0.0176,0.688759 -0.0175,0.688857 0.21409,0.733356 0.12742,0.02448 0.25072,0.02553 0.27401,0.0023 0.0825,-0.08221 -0.007,-1.316811 -0.13007,-1.79046 -0.0686,-0.264413 -0.19252,-0.576 -0.27534,-0.692416 -0.32955,-0.463229 -0.57574,-1.231073 -0.65768,-2.051254 -0.0572,-0.572087 -0.007,-0.996749 0.11707,-0.996749 0.0711,0 0.35335,0.589398 0.35335,0.737749 0,0.0485 0.0505,0.130078 0.11218,0.181282 0.13953,0.115805 0.52115,0.885466 0.63579,1.282303 0.0471,0.162983 0.11094,0.556389 0.14191,0.874236 0.0548,0.562427 0.0606,0.573979 0.21821,0.431378 0.0891,-0.08059 0.16191,-0.232679 0.16191,-0.337977 0,-0.342453 1.26353,-2.068304 1.51425,-2.068304 0.0598,0 0.0944,0.20201 0.0944,0.550333 0,0.310445 -0.0369,0.550334 -0.0847,0.550334 -0.0466,0 -0.0847,0.07304 -0.0847,0.162313 0,0.416168 -0.37153,1.001089 -1.06428,1.675564 -0.80689,0.785596 -0.9321,1.053497 -0.35388,0.757206 0.1979,-0.101413 0.51155,-0.288644 0.69698,-0.416069 0.65583,-0.45066 0.70352,-0.21152 0.15447,0.77455 -0.36557,0.656548 -0.7622,1.105944 -1.14017,1.291861 -0.15553,0.0765 -0.49233,0.242222 -0.74845,0.368269 -0.49442,0.24333 -0.73985,0.432014 -0.66252,0.509344 0.0555,0.05549 0.81752,-0.11405 1.00119,-0.222753 0.44112,-0.261076 0.85136,-0.436473 0.90213,-0.385705 0.0326,0.03255 -0.0428,0.165648 -0.16747,0.295769 -0.12467,0.13012 -0.22666,0.279951 -0.22666,0.332957 0,0.15036 -0.93409,1.122026 -1.07863,1.122026 -0.071,0 -0.25733,0.07928 -0.41412,0.17618 -0.15678,0.0969 -0.59028,0.229463 -0.96332,0.294587 -0.37304,0.06512 -0.79029,0.176344 -0.92722,0.247154 -0.30716,0.158839 -0.42671,0.162957 -0.42671,0.0147 z m -10.55542,-0.363113 c -0.4098,-0.145216 -0.87186,-0.553314 -1.09628,-0.968241 -0.23112,-0.427312 -0.212,-1.439783 0.0362,-1.916728 0.35342,-0.679151 0.18628,-1.330448 -0.42092,-1.640222 -0.35473,-0.180968 -0.44229,-0.180526 -1.17158,0.0059 -0.6521,0.166708 -1.28952,0.0047 -1.85556,-0.47158 -0.831566,-0.699716 -0.838169,-2.09523 -0.0183,-3.86507 1.0942,-2.362004 3.874,-3.858486 6.42809,-3.460504 2.13771,0.3331 3.84177,1.601288 4.78162,3.55855 0.4323,0.900278 0.49899,1.214064 0.5437,2.558309 0.034,1.022521 0.0235,1.107412 -0.235,1.902646 -0.14882,0.457805 -0.34598,0.966592 -0.43811,1.130637 -0.97338,1.733019 -2.44585,2.817023 -4.36345,3.212293 -0.62173,0.128153 -1.76682,0.104101 -2.19042,-0.04601 z m 2.09035,-1.449008 c 0.33258,-0.299813 0.41004,-0.73079 0.20792,-1.156738 -0.34996,-0.737486 -1.33908,-0.737486 -1.68904,0 -0.32251,0.679648 0.11744,1.389571 0.86115,1.389571 0.27552,0 0.42323,-0.05547 0.61997,-0.232833 z m 2.86297,-1.683675 c 0.27043,-0.176112 0.46379,-0.668082 0.39878,-1.014628 -0.0661,-0.352567 -0.57777,-0.794197 -0.92008,-0.794197 -0.51411,0 -0.9886,0.487643 -0.9886,1.016 0,0.766655 0.85815,1.217258 1.5099,0.792825 z m 0.7126,-3.582933 c 0.34944,-0.39106 0.32887,-0.906002 -0.0523,-1.310197 -0.23216,-0.246152 -0.34627,-0.302258 -0.61384,-0.301804 -0.54351,9.23e-4 -1.03805,0.435214 -1.04533,0.91798 -0.0134,0.888512 1.12515,1.350202 1.7115,0.694021 z m -8.02772,0.167552 c 0.55444,-0.210796 0.72067,-1.14581 0.28175,-1.584733 -0.43324,-0.433232 -1.26715,-0.311671 -1.54477,0.225185 -0.43401,0.839281 0.36611,1.700551 1.26302,1.359548 z m 2.15046,-2.512096 c 0.31329,-0.20274 0.4737,-0.675724 0.359,-1.058569 -0.13183,-0.439988 -0.4442,-0.664779 -0.9238,-0.664779 -0.79786,0 -1.21585,0.822076 -0.75784,1.490491 0.30197,0.440698 0.85185,0.537508 1.32264,0.232857 z m 3.47388,-0.01769 c 0.11007,-0.07721 0.25729,-0.283685 0.32716,-0.458846 0.10613,-0.266105 0.10915,-0.361622 0.0183,-0.580878 -0.18556,-0.447984 -0.49174,-0.665937 -0.9355,-0.665937 -0.47392,0 -0.78327,0.213299 -0.92288,0.636324 -0.29602,0.896948 0.72738,1.620304 1.51289,1.069337 z m -17.397617,7.14606 c -0.02595,-0.06762 -0.0225,-0.162871 0.0077,-0.211667 0.09861,-0.159558 0.214172,-0.09322 0.214172,0.122946 0,0.229521 -0.145469,0.287703 -0.221826,0.08872 z m 24.944497,-0.08872 c 0,-0.142993 0.0388,-0.212843 0.10583,-0.1905 0.0582,0.0194 0.10583,0.105128 0.10583,0.1905 0,0.08537 -0.0476,0.171097 -0.10583,0.1905 -0.067,0.02234 -0.10583,-0.04751 -0.10583,-0.1905 z m -18.91492,-2.43416 c -0.28616,-0.443852 -1.509596,-3.895685 -1.958054,-5.524499 -0.07693,-0.2794 -0.193527,-0.686609 -0.259114,-0.904909 -0.208399,-0.693635 -0.138431,-0.986668 0.209239,-0.876322 0.389828,0.123727 2.731994,4.194651 3.641898,6.329992 0.170487,0.400095 0.170487,0.400095 -0.01379,0.529166 -0.101352,0.07099 -0.242473,0.129762 -0.313604,0.130606 -0.07113,8.47e-4 -0.33544,0.115144 -0.587355,0.254 -0.548999,0.30261 -0.56328,0.303841 -0.719222,0.06197 z m 16.2741,-7.490649 c -0.43834,-0.271905 -0.40226,-0.845088 0.0673,-1.069009 0.37603,-0.179315 0.37054,-0.17975 1.02184,0.08082 0.403,0.161221 0.57678,0.195429 0.64521,0.127 0.0684,-0.06843 0.0574,-0.09366 -0.0411,-0.09366 -0.16635,0 -0.25435,-0.319293 -0.1844,-0.669063 0.0457,-0.228636 0.029,-0.26227 -0.13083,-0.26227 -0.45113,0 -1.31274,-0.622145 -1.38889,-1.002877 -0.0377,-0.188361 -0.10792,-0.256009 -0.30725,-0.295874 -0.18504,-0.03701 -0.25841,-0.0999 -0.25841,-0.22152 0,-0.116464 -0.0732,-0.185869 -0.23283,-0.220854 -0.41623,-0.0912 -0.80089,-0.327435 -0.98444,-0.604572 -0.10753,-0.162351 -0.26447,-0.281394 -0.39067,-0.296333 -0.25575,-0.03027 -0.31511,-0.248817 -0.12046,-0.44347 0.16456,-0.164564 0.0579,-0.337122 -0.15727,-0.254536 -0.1547,0.05937 -0.26272,0.430986 -0.26902,0.925602 -0.005,0.416259 -0.2081,0.493949 -0.42505,0.162841 -0.15264,-0.232963 -0.12505,-0.459205 0.13746,-1.127173 0.0686,-0.174541 0.0345,-0.250384 -0.23731,-0.528802 -0.42679,-0.437073 -0.57014,-0.469461 -0.88928,-0.200923 -0.72452,0.609642 -1.54071,0.730924 -2.17054,0.322534 -0.48901,-0.317075 -0.64161,-0.670909 -0.59135,-1.371102 0.0604,-0.841902 0.47545,-1.52808 1.20843,-1.99804 0.3578,-0.229411 1.41729,-0.230503 1.778,-0.0018 0.36547,0.231688 0.54629,0.476802 0.54845,0.743432 0.002,0.308181 -0.30519,0.326942 -0.41977,0.02559 -0.12712,-0.334365 -0.44618,-0.487027 -1.01785,-0.487027 -0.46481,0 -0.5472,0.0288 -0.89296,0.312117 -1.10779,0.907756 -0.99835,2.583483 0.16874,2.583483 0.45218,0 1.31706,-0.501123 1.31706,-0.763124 0,-0.124942 -0.47415,-0.337543 -0.7528,-0.337543 -0.31039,0 -0.3935,-0.111606 -0.2156,-0.289508 0.19371,-0.193713 0.60498,-0.164419 1.00806,0.0718 0.19299,0.113096 0.39008,0.179771 0.43798,0.148167 0.0479,-0.0316 0.43739,-0.466985 0.86551,-0.967514 1.00271,-1.172299 1.47713,-1.391998 1.961,-0.908128 0.33415,0.334149 0.19488,0.738774 -0.78532,2.281563 -0.26776,0.421441 -0.48683,0.803913 -0.48683,0.849937 0,0.164595 0.38744,0.07624 0.75357,-0.171861 0.20492,-0.138852 0.43933,-0.252459 0.52091,-0.252459 0.0816,0 0.55832,-0.324954 1.0594,-0.72212 0.50108,-0.397166 0.95248,-0.708316 1.00309,-0.691445 0.0506,0.01687 0.092,0.115216 0.092,0.218543 0,0.12923 -0.17177,0.32647 -0.55034,0.63194 -0.30268,0.24424 -0.54008,0.480375 -0.52755,0.524744 0.0125,0.04437 0.12092,0.10692 0.24088,0.139003 0.26566,0.07105 0.4497,0.298279 0.45331,0.559706 0.006,0.397881 -0.42883,1.02786 -0.86514,1.254847 -0.25965,0.135085 -0.33581,0.430747 -0.0847,0.328689 0.0815,-0.03312 0.24602,-0.0897 0.36562,-0.125738 0.1196,-0.03604 0.29105,-0.103828 0.381,-0.150638 0.09,-0.04681 0.27784,-0.136629 0.41754,-0.1996 0.1397,-0.06297 0.4826,-0.25157 0.762,-0.41911 1.4212,-0.852211 1.73567,-0.966493 1.73567,-0.63076 0,0.121597 -0.83042,0.721272 -0.99881,0.721272 -0.0416,0 -0.14385,0.07541 -0.22726,0.167568 -0.14596,0.16128 -0.14565,0.169697 0.008,0.224283 0.29987,0.106499 0.5407,0.393527 0.5407,0.644429 0,0.356304 -0.77546,1.116964 -1.22458,1.201221 -0.24272,0.04553 -0.29799,0.0822 -0.2089,0.138577 0.18889,0.119533 0.79588,0.09259 1.06396,-0.04722 0.13339,-0.06956 0.33967,-0.126713 0.45842,-0.127 0.11874,-2.54e-4 0.25209,-0.03434 0.29633,-0.07567 0.13442,-0.125587 0.41233,-0.179235 0.53367,-0.103017 0.14597,0.09168 -0.0147,0.432168 -0.20391,0.432168 -0.21907,0 -1.54254,0.674708 -1.59582,0.813552 -0.0845,0.220121 0.023,0.287115 0.46078,0.287115 0.36567,0 0.65716,-0.07526 1.30905,-0.337997 0.72689,-0.292963 0.889,-0.300437 0.889,-0.04099 0,0.139591 -0.2219,0.273206 -0.79854,0.480842 -0.60391,0.217458 -1.4028,0.595561 -1.4028,0.66393 0,0.105984 0.55701,0.151975 1.25838,0.103903 0.59606,-0.04086 0.68896,-0.02887 0.68896,0.0889 0,0.241772 -0.34891,0.348546 -1.143,0.34979 -0.51711,8.47e-4 -0.89407,-0.04661 -1.17293,-0.14756 -0.39768,-0.143964 -0.43057,-0.143239 -1.0214,0.02255 -0.7316,0.205288 -0.78942,0.206651 -1.08149,0.02549 z m 0.88972,-0.417312 c 0.0819,-0.08185 -0.21112,-0.277745 -0.42001,-0.280846 -0.17717,-0.0026 -0.32276,0.184557 -0.22195,0.285363 0.0682,0.06819 0.57281,0.06464 0.64196,-0.0045 z m 0.5192,-2.496068 c 0.0442,-0.04041 0.14266,-0.07347 0.21872,-0.07347 0.17225,0 0.75918,-0.576437 0.75918,-0.745611 0,-0.341755 -0.55459,-0.448326 -1.07663,-0.206889 -0.74858,0.346204 -1.11577,0.948528 -0.68021,1.115767 0.20668,0.07935 0.64966,0.02828 0.77894,-0.0898 z m -2.09525,-1.530251 c 0.36983,-0.159471 0.8648,-0.570073 0.99822,-0.828073 0.10902,-0.210823 0.10594,-0.248494 -0.0304,-0.371866 -0.30997,-0.280519 -0.87547,-0.104202 -1.43154,0.446336 -0.1968,0.194843 -0.35782,0.421369 -0.35782,0.503389 0,0.335145 0.36601,0.446624 0.82152,0.250214 z m -1.27508,-2.607219 c 0.63708,-1.01502 0.81801,-1.48808 0.61672,-1.612483 -0.16028,-0.09905 -0.55153,0.150181 -0.86991,0.55415 -0.26032,0.330298 -0.35876,0.446846 -0.89388,1.058333 -0.31966,0.365275 -0.32411,0.476283 -0.0313,0.781922 0.36875,0.384892 0.50114,0.29704 1.17835,-0.781922 z m -20.750026,5.464612 c -0.377659,-0.16656 -0.961325,-0.796405 -1.19422,-1.288705 -0.276976,-0.58548 -0.276533,-1.163271 0.0013,-1.750654 0.314641,-0.665097 0.987403,-1.080046 1.409724,-0.869496 0.321637,0.160353 0.247954,0.336553 -0.170621,0.408009 -0.20443,0.0349 -0.447936,0.131204 -0.541124,0.21401 -0.231428,0.205646 -0.480069,0.770659 -0.482325,1.096038 -0.0038,0.554204 0.447811,1.274473 1.069544,1.705641 0.889062,0.616559 1.887058,-0.519226 1.425946,-1.622822 -0.117675,-0.281635 -0.143015,-0.297561 -0.334586,-0.210275 -0.113998,0.05194 -0.268043,0.222509 -0.342322,0.37904 -0.177971,0.375045 -0.465775,0.396473 -0.465775,0.03468 0,-0.176364 0.09104,-0.338344 0.309322,-0.550334 0.170126,-0.165225 0.360626,-0.300409 0.423333,-0.300409 0.149227,0 0.146212,-0.343057 -0.0061,-0.695627 -0.06607,-0.152922 -0.197514,-0.454547 -0.292101,-0.670279 -0.552233,-1.25952 -0.585752,-1.665722 -0.169065,-2.048831 0.495894,-0.455933 0.919712,-0.129749 1.832241,1.410149 0.292207,0.4931 0.56652,0.918322 0.609586,0.944939 0.251224,0.155265 0.417517,-1.308072 0.18073,-1.590395 -0.116676,-0.139115 -0.180415,-0.683143 -0.0897,-0.765615 0.02096,-0.01905 0.123517,-0.06089 0.227915,-0.09298 0.151039,-0.04642 0.210026,-0.01398 0.288757,0.158815 0.129653,0.284558 0.222252,0.273976 0.507632,-0.05801 0.267447,-0.311126 0.353284,-0.262085 0.481635,0.275167 0.39005,1.632677 0.405776,1.671317 0.643136,1.580233 0.10981,-0.04214 0.132692,-0.218451 0.132692,-1.022442 0,-0.90843 -0.01224,-0.980096 -0.188474,-1.103534 -0.185687,-0.130061 -0.186234,-0.13617 -0.037,-0.413291 0.09754,-0.181114 0.131781,-0.359764 0.09616,-0.501678 -0.07078,-0.282014 0.02036,-0.571288 0.180002,-0.571288 0.12788,0 0.152895,0.04646 0.240931,0.447495 0.03179,0.144816 0.132544,0.266538 0.261072,0.315404 0.252782,0.09611 0.271017,0.297791 0.03997,0.442083 -0.107929,0.0674 -0.169333,0.197445 -0.169333,0.358617 0,0.446942 0.281673,1.585001 0.403902,1.631905 0.224964,0.08633 0.388542,-0.214188 0.454964,-0.835827 0.06899,-0.645639 0.148947,-0.804758 0.363109,-0.722576 0.313506,0.120303 0.02929,1.618811 -0.366001,1.929751 -0.168571,0.132598 -0.293927,0.161688 -0.532414,0.123553 -0.275831,-0.04411 -0.332453,-0.02106 -0.489277,0.199184 -0.217309,0.305181 -0.469381,0.394962 -0.724927,0.258198 -0.213546,-0.114287 -0.388623,-0.469562 -0.594121,-1.20562 -0.07476,-0.267759 -0.161789,-0.48625 -0.19341,-0.485537 -0.182887,0.0041 -0.265724,0.202839 -0.352723,0.846147 -0.05347,0.395389 -0.170844,0.844892 -0.260828,0.998896 -0.08998,0.154003 -0.163607,0.313997 -0.163607,0.355542 0,0.118982 0.524664,0.578477 0.782439,0.685251 0.264969,0.109754 0.287852,0.179742 0.10766,0.329288 -0.189353,0.157149 -0.516181,0.03689 -0.925739,-0.340623 -0.414831,-0.382378 -0.42118,-0.383671 -0.982703,-0.200006 -0.444637,0.145433 -0.57618,0.336235 -0.425681,0.617444 0.128066,0.239293 0.110191,1.039209 -0.03071,1.374258 -0.121611,0.28918 -0.443556,0.621622 -0.788953,0.814673 -0.240016,0.134151 -0.836388,0.125125 -1.159901,-0.01756 z m 2.526656,-3.351996 c 0.158078,-0.150952 0.150226,-0.172687 -0.381,-1.054635 -0.684654,-1.136672 -0.999316,-1.513713 -1.198571,-1.436183 -0.288611,0.1123 -0.198271,0.509637 0.432491,1.902202 0.09492,0.20955 0.212379,0.487552 0.26103,0.617781 0.0814,0.217896 0.113829,0.232322 0.406552,0.180873 0.174952,-0.03075 0.390726,-0.125267 0.479498,-0.210038 z m 8.16681,-0.05244 c -0.16095,-0.04284 -0.24838,-0.39137 -0.18287,-0.729015 0.0481,-0.247938 0.54006,-0.713544 0.83314,-0.788514 0.0952,-0.02436 0.21874,-0.117307 0.27447,-0.206547 0.093,-0.148923 0.0809,-0.158173 -0.14711,-0.112567 -0.19674,0.03935 -0.29113,0.0036 -0.45352,-0.171588 -0.11279,-0.121702 -0.22737,-0.221277 -0.25462,-0.221277 -0.0272,0 -0.21338,0.107442 -0.41363,0.23876 -0.53902,0.353487 -1.029791,0.490335 -1.306435,0.364288 -0.185378,-0.08446 -0.248545,-0.07794 -0.377797,0.03903 -0.08629,0.07809 -0.216594,0.116897 -0.293472,0.0874 -0.120904,-0.0464 -0.131395,-0.167305 -0.08353,-0.962769 0.0301,-0.50034 0.08861,-1.081159 0.130014,-1.290709 0.0414,-0.20955 0.09927,-0.757232 0.128598,-1.217071 0.05236,-0.821049 0.153601,-1.153595 0.351195,-1.153595 0.154723,0 0.174487,0.15185 0.130571,1.003199 -0.04083,0.791533 -0.04083,0.791533 0.22094,0.656167 0.41018,-0.212113 0.655036,-0.173135 0.878246,0.1398 0.1694,0.2375 0.19622,0.376578 0.19596,1.016 -1.6e-4,0.407458 0.024,0.740833 0.0538,0.740833 0.11558,0 0.31854,-0.420203 0.58398,-1.20908 0.21248,-0.631452 0.31219,-0.82292 0.42857,-0.82292 0.21387,0 0.27635,0.142205 0.17894,0.407277 -0.046,0.125248 -0.15154,0.543621 -0.23447,0.929719 -0.14119,0.65734 -0.14174,0.71104 -0.009,0.844192 0.13315,0.133152 0.15597,0.128416 0.35884,-0.07445 0.21346,-0.213456 0.62892,-1.207599 0.62892,-1.504913 0,-0.178554 0.24024,-0.687082 0.3237,-0.685194 0.2119,0.0048 0.28496,0.160508 0.20325,0.433144 -0.19921,0.664603 -0.4631,1.943627 -0.41164,1.995089 0.10058,0.100584 0.57293,-0.429836 0.82524,-0.926696 0.17581,-0.346209 0.29578,-0.486833 0.41534,-0.486833 0.23614,0 0.20989,0.2891 -0.0703,0.774707 -0.31068,0.538349 -0.58817,0.843689 -1.10268,1.213328 -0.31281,0.224729 -0.43686,0.370279 -0.43686,0.512577 0,0.1093 -0.0332,0.219233 -0.0737,0.244296 -0.0406,0.02506 -0.0951,0.152256 -0.12115,0.282652 -0.0758,0.379062 -0.42676,0.699447 -0.75358,0.687951 -0.15356,-0.0054 -0.34151,-0.0264 -0.41766,-0.04667 z m 0.69114,-0.625236 c 0.11421,-0.213415 0.1028,-0.334272 -0.0316,-0.334272 -0.172,0 -0.42139,0.314824 -0.36527,0.461086 0.0604,0.157443 0.28272,0.0864 0.39683,-0.126814 z m -1.720371,-1.815939 c 0.144141,-0.255265 0.191251,-0.474193 0.191331,-0.889 5e-5,-0.302683 -0.0279,-0.591212 -0.0621,-0.641175 -0.257573,-0.376161 -0.732434,0.02419 -0.883619,0.744978 -0.07735,0.368762 -0.07598,0.550307 0.0062,0.824675 0.09301,0.310451 0.131951,0.348722 0.331174,0.325503 0.161513,-0.01882 0.280194,-0.122702 0.417,-0.364981 z m 0.532681,-0.08467 c 0,-0.02328 -0.019,-0.04233 -0.0423,-0.04233 -0.0233,0 -0.0423,0.01905 -0.0423,0.04233 0,0.02328 0.0191,0.04233 0.0423,0.04233 0.0233,0 0.0423,-0.01905 0.0423,-0.04233 z"
       id="path4556" /></g></svg>
