<?xml version="1.0" encoding="UTF-8" standalone="no"?>
<!-- Created with Inkscape (http://www.inkscape.org/) -->

<svg
   width="96.302147mm"
   height="34.444405mm"
   viewBox="0 0 96.302147 34.444405"
   version="1.1"
   id="svg5"
   xml:space="preserve"
   inkscape:version="1.2 (dc2aedaf03, 2022-05-15)"
   sodipodi:docname="logo.svg"
   xmlns:inkscape="http://www.inkscape.org/namespaces/inkscape"
   xmlns:sodipodi="http://sodipodi.sourceforge.net/DTD/sodipodi-0.dtd"
   xmlns="http://www.w3.org/2000/svg"
   xmlns:svg="http://www.w3.org/2000/svg"><sodipodi:namedview
     id="namedview7"
     pagecolor="#505050"
     bordercolor="#eeeeee"
     borderopacity="1"
     inkscape:showpageshadow="0"
     inkscape:pageopacity="0"
     inkscape:pagecheckerboard="0"
     inkscape:deskcolor="#505050"
     inkscape:document-units="mm"
     showgrid="false"
     inkscape:zoom="1.0885159"
     inkscape:cx="58.336309"
     inkscape:cy="-55.580263"
     inkscape:window-width="1920"
     inkscape:window-height="1051"
     inkscape:window-x="-9"
     inkscape:window-y="-9"
     inkscape:window-maximized="1"
     inkscape:current-layer="layer1" /><defs
     id="defs2" /><g
     inkscape:label="Layer 1"
     inkscape:groupmode="layer"
     id="layer1"
     transform="translate(-69.468916,-146.37344)"><path
       style="fill:#72505e;fill-opacity:1;stroke:none;stroke-width:0.0846667;stroke-opacity:1"
       d="m 107.80728,180.69189 c -0.68518,-0.33772 -0.81663,-0.83419 -0.74507,-2.81408 0.0945,-2.61564 0.28025,-3.49213 1.14633,-5.41016 1.21139,-2.6828 2.72603,-5.06086 4.39221,-6.896 0.28532,-0.31425 0.5395,-0.65715 0.56483,-0.762 0.0749,-0.30999 0.53378,-3.74399 0.50453,-3.77566 -0.0147,-0.016 -0.0916,0.0983 -0.17077,0.254 -0.38627,0.75948 -1.35147,1.75532 -1.87984,1.93951 -0.46546,0.16226 -1.12136,-0.44793 -1.12136,-1.04321 0,-0.2929 -0.15998,-0.20601 -0.57556,0.31258 -0.55559,0.69332 -1.62513,1.63416 -2.52311,2.21949 -0.96048,0.62607 -3.04103,1.62162 -3.64637,1.74479 -0.57358,0.11672 -0.56294,0.10574 -0.79904,0.82488 -0.22891,0.69725 -0.35957,0.85329 -0.55274,0.66012 -0.16828,-0.16827 -0.13129,-0.36248 1.27845,-6.71379 0.52714,-2.3749 0.98511,-4.48945 1.01771,-4.699 0.055,-0.35373 0.38916,-1.81755 0.51918,-2.27449 0.057,-0.20015 0.057,-0.20015 -3.57495,-0.13829 -1.997544,0.034 -3.639574,0.0683 -3.648944,0.0761 -0.009,0.008 -0.30434,1.28925 -0.65548,2.84763 -0.35114,1.55837 -0.69434,3.08105 -0.76266,3.38373 -0.20627,0.91387 -2.64388,13.03633 -2.74952,13.67367 -0.1823,1.09982 -0.1835,1.02896 0.0173,1.02218 0.26485,-0.009 0.27948,0.24874 0.0284,0.49984 -0.25203,0.25203 -0.32987,0.26236 -0.52285,0.0694 -0.24429,-0.24429 -0.11316,-1.07448 1.18073,-7.47558 0.673,-3.32943 1.21389,-6.06326 1.20198,-6.07518 -0.0119,-0.0119 -0.38989,0.59762 -0.83993,1.35452 -0.8987,1.51145 -1.87662,2.8771 -2.64768,3.69744 -0.80661,0.85816 -1.516394,0.80286 -1.691744,-0.13181 -0.12236,-0.65222 0.29696,-3.01893 0.933814,-5.27053 0.21588,-0.76326 0.38159,-1.41991 0.36826,-1.45921 -0.0133,-0.0393 -0.31398,0.0937 -0.66809,0.29566 -1.396054,0.79606 -1.993694,0.75372 -2.655024,-0.18808 -0.63342,-0.90205 -0.029,-2.69046 1.21886,-3.60647 0.56594,-0.41544 0.92203,-0.40008 1.15468,0.0498 0.182964,0.35379 0.0646,0.7135 -0.77309,2.34933 -0.39072,0.76302 -0.68746,1.42444 -0.6594,1.46983 0.10073,0.163 0.68221,-0.0231 1.700784,-0.54443 1.45093,-0.74258 1.44725,-0.74783 0.87911,1.25448 -0.57233,2.01711 -0.74447,2.76564 -0.90297,3.92662 -0.360084,2.63753 0.0382,2.67161 1.909,0.16332 1.26496,-1.69601 2.95096,-4.66364 3.12365,-5.49813 0.10457,-0.50529 1.27117,-5.50673 1.32589,-5.68431 0.0392,-0.12736 -0.23666,-0.13495 -3.38678,-0.0932 -3.187274,0.0422 -3.433434,0.0352 -3.485264,-0.0999 -0.0307,-0.0799 -0.0221,-0.17808 0.019,-0.21812 0.0411,-0.04 1.626524,-0.10023 3.523154,-0.13376 3.05719,-0.054 3.45295,-0.0764 3.48843,-0.19668 0.022,-0.0746 0.236,-0.99297 0.47553,-2.04072 0.42023,-1.83813 0.55144,-2.20197 0.74984,-2.07935 0.14782,0.0914 0.11784,0.29096 -0.34504,2.2974 -0.24081,1.04382 -0.42178,1.90854 -0.40217,1.9216 0.0196,0.0131 1.65868,0.01 3.642374,-0.007 l 3.6067,-0.031 0.22998,-0.76829 c 0.6398,-2.13732 1.63982,-4.46198 2.07812,-4.83078 0.36253,-0.30505 0.68579,-0.28322 0.8038,0.0543 0.18491,0.5288 -0.52512,2.69629 -1.48393,4.52997 -0.27594,0.52773 -0.50171,0.97588 -0.50171,0.99588 0,0.02 0.71767,0.0328 1.59483,0.0283 1.94763,-0.01 2.55384,0.11345 2.55384,0.51931 0,0.23775 -0.15406,0.27865 -0.40589,0.10776 -0.20547,-0.13942 -0.42526,-0.15546 -2.12979,-0.15546 h -1.90068 l -0.486,0.84577 c -0.33623,0.58513 -0.50305,0.97651 -0.54133,1.27 -0.0304,0.23333 -0.4709,2.29727 -0.97882,4.58655 -0.50792,2.28927 -0.9221,4.19427 -0.92039,4.23333 0.002,0.0391 0.23993,-0.38618 0.52939,-0.94498 1.23437,-2.38296 2.44494,-3.63728 3.14754,-3.26126 0.2105,0.11266 0.38397,0.47442 0.38397,0.80077 0,0.57681 -0.63626,2.17043 -1.18496,2.96794 -0.14888,0.2164 -0.25422,0.40992 -0.23409,0.43005 0.0568,0.0568 1.31873,-0.72347 1.92938,-1.19285 1.51728,-1.1663 2.41226,-2.32019 2.832,-3.65126 0.27351,-0.86734 0.38272,-1.0464 0.63822,-1.0464 0.19029,0 0.14542,0.39281 -0.13493,1.18114 -0.45978,1.29291 -0.356,2.45953 0.2188,2.45953 0.43746,0 1.29377,-0.98756 2.13192,-2.45871 0.4137,-0.72615 0.61177,-0.90247 0.71413,-0.63572 0.0259,0.0676 -0.0899,1.12487 -0.25747,2.3495 -0.16755,1.22463 -0.30427,2.2634 -0.30382,2.30837 4.2e-4,0.045 0.20084,-0.11028 0.44532,-0.34501 1.41744,-1.36097 4.31022,-3.49772 4.58996,-3.39037 0.2697,0.10349 0.10226,0.2898 -0.86463,0.96203 -1.30735,0.90894 -2.68494,2.01543 -3.58122,2.87646 -0.72371,0.69526 -0.72371,0.69526 -0.87504,1.65219 -0.0832,0.52631 -0.33764,1.89038 -0.56537,3.03126 -1.35335,6.78016 -2.79248,10.52395 -4.42908,11.52191 -0.31622,0.19282 -0.28167,0.19165 -0.62732,0.0213 z m 0.97694,-0.909 c 1.40677,-1.50383 2.75709,-5.77599 4.04097,-12.78482 0.11858,-0.64733 0.20125,-1.19131 0.18371,-1.20885 -0.0175,-0.0175 -0.32682,0.32159 -0.68729,0.75362 -1.95788,2.34657 -4.10864,6.37914 -4.57378,8.57558 -0.1886,0.89062 -0.34145,4.05539 -0.21792,4.51224 0.22635,0.83713 0.57414,0.87934 1.25431,0.15223 z m -4.63608,-13.95494 c 0.95603,-0.3297 1.76196,-1.28693 2.41167,-2.8644 0.27706,-0.67267 0.40485,-1.55345 0.24814,-1.71017 -0.21834,-0.21833 -1.06654,0.56312 -1.81168,1.66909 -0.41824,0.62077 -1.52546,2.80242 -1.52546,3.00573 0,0.12259 0.0546,0.1145 0.67733,-0.10025 z m -14.327908,-6.91399 c 0.70393,-1.36993 0.83773,-1.84167 0.54923,-1.93636 -0.19249,-0.0632 -1.11238,0.91109 -1.38708,1.4691 -0.2896,0.58826 -0.35725,1.37827 -0.14687,1.71514 0.17768,0.28452 0.23392,0.21326 0.98472,-1.24788 z m 16.636668,-6.1271 c 0.86574,-1.62952 1.3562,-2.9004 1.57846,-4.09012 0.14961,-0.80082 -0.2147,-0.34348 -0.79533,0.99843 -0.35589,0.8225 -1.39855,3.74921 -1.39855,3.92569 0,0.19974 0.23646,-0.1207 0.61542,-0.834 z m 48.25572,27.90503 c -0.68519,-0.33772 -0.81664,-0.83419 -0.74508,-2.81408 0.0945,-2.61564 0.28026,-3.49213 1.14633,-5.41016 1.21139,-2.6828 2.72604,-5.06086 4.39222,-6.896 0.28532,-0.31425 0.53949,-0.65715 0.56483,-0.762 0.0749,-0.30999 0.53378,-3.74399 0.50452,-3.77566 -0.0147,-0.016 -0.0916,0.0983 -0.17076,0.254 -0.38627,0.75948 -1.35148,1.75532 -1.87985,1.93951 -0.46546,0.16226 -1.12135,-0.44793 -1.12135,-1.04321 0,-0.2929 -0.15999,-0.20601 -0.57556,0.31258 -0.5556,0.69332 -1.62514,1.63416 -2.52312,2.21949 -0.96048,0.62607 -3.04102,1.62162 -3.64636,1.74479 -0.57358,0.11672 -0.56295,0.10574 -0.79905,0.82488 -0.223,0.67926 -0.34933,0.83689 -0.54232,0.67671 -0.1705,-0.1415 -0.17441,-0.1165 0.52103,-3.33066 0.30071,-1.38981 0.53448,-2.56376 0.51947,-2.60876 -0.015,-0.045 -0.22459,0.1644 -0.46575,0.46535 -0.56161,0.70084 -1.62811,1.64002 -2.52968,2.22769 -0.96048,0.62607 -3.04103,1.62162 -3.64637,1.74479 -0.57358,0.11672 -0.56295,0.10574 -0.79904,0.82488 -0.22891,0.69725 -0.35958,0.85329 -0.55274,0.66012 -0.16828,-0.16827 -0.1313,-0.36248 1.27845,-6.71379 0.52714,-2.3749 0.98448,-4.48945 1.01633,-4.699 0.18827,-1.23898 0.88433,-3.68765 1.58845,-5.588 0.87362,-2.35782 1.37865,-3.17887 1.91669,-3.11599 0.38836,0.0454 0.42132,0.36889 0.14781,1.45052 -0.37871,1.49765 -1.04675,2.96282 -2.55442,5.60247 -0.36799,0.64426 -0.54985,1.06182 -0.59003,1.35466 -0.0319,0.23284 -0.47322,2.29638 -0.98061,4.58566 -0.50738,2.28927 -0.92112,4.19427 -0.91941,4.23333 0.002,0.0391 0.23993,-0.38618 0.52939,-0.94498 1.23436,-2.38296 2.44494,-3.63728 3.14754,-3.26126 0.2105,0.11266 0.38396,0.47442 0.38396,0.80077 0,0.57681 -0.63625,2.17043 -1.18496,2.96794 -0.14888,0.2164 -0.25422,0.40992 -0.23409,0.43005 0.0568,0.0568 1.31874,-0.72347 1.92938,-1.19285 0.74528,-0.57288 1.56811,-1.40322 2.09127,-2.11036 0.59564,-0.80511 1.38581,-3.26631 1.67329,-5.21196 0.17905,-1.21177 0.88017,-3.6807 1.58686,-5.588 0.87361,-2.35782 1.37865,-3.17887 1.91668,-3.11599 0.38837,0.0454 0.42133,0.36889 0.14781,1.45052 -0.3787,1.49765 -1.04674,2.96282 -2.55442,5.60247 -0.36852,0.6452 -0.54971,1.06139 -0.58976,1.35466 -0.0666,0.48772 -0.52287,2.64655 -0.88575,4.191 -0.30558,1.30062 -1.01879,4.56388 -1.01454,4.64198 0.002,0.0314 0.23994,-0.40017 0.52939,-0.95897 1.23437,-2.38296 2.44495,-3.63728 3.14754,-3.26126 0.2105,0.11266 0.38397,0.47442 0.38397,0.80077 0,0.57681 -0.63625,2.17043 -1.18496,2.96794 -0.14888,0.2164 -0.25422,0.40992 -0.23409,0.43005 0.0568,0.0568 1.31874,-0.72347 1.92938,-1.19285 1.51727,-1.1663 2.41226,-2.32019 2.832,-3.65126 0.27351,-0.86734 0.38272,-1.0464 0.63822,-1.0464 0.19029,0 0.14542,0.39281 -0.13492,1.18114 -0.45979,1.29291 -0.356,2.45953 0.21878,2.45953 0.43748,0 1.29378,-0.98756 2.13193,-2.45871 0.4137,-0.72615 0.61177,-0.90247 0.71414,-0.63572 0.0259,0.0676 -0.0899,1.12487 -0.25748,2.3495 -0.16755,1.22463 -0.30427,2.2634 -0.30382,2.30837 8.4e-4,0.045 0.20084,-0.11028 0.44532,-0.34501 1.41744,-1.36097 4.31022,-3.49772 4.58996,-3.39037 0.2697,0.10349 0.10226,0.2898 -0.86463,0.96203 -1.30734,0.90894 -2.68494,2.01543 -3.58121,2.87646 -0.72372,0.69526 -0.72372,0.69526 -0.87504,1.65219 -0.0832,0.52631 -0.33765,1.89038 -0.56537,3.03126 -1.35335,6.78016 -2.79249,10.52395 -4.42909,11.52191 -0.31621,0.19282 -0.28167,0.19165 -0.62731,0.0213 z m 0.97694,-0.909 c 1.40675,-1.50383 2.75708,-5.77599 4.04096,-12.78482 0.11858,-0.64733 0.20125,-1.19131 0.18371,-1.20885 -0.0175,-0.0175 -0.32682,0.32159 -0.68729,0.75362 -1.95787,2.34657 -4.10864,6.37914 -4.57378,8.57558 -0.1886,0.89062 -0.34145,4.05539 -0.21792,4.51224 0.22635,0.83713 0.57414,0.87934 1.25432,0.15223 z m -11.57875,-13.95494 c 0.95602,-0.3297 1.76196,-1.28693 2.41167,-2.8644 0.27705,-0.67267 0.40485,-1.55345 0.24813,-1.71017 -0.21833,-0.21833 -1.06654,0.56312 -1.81167,1.66909 -0.41824,0.62077 -1.52546,2.80242 -1.52546,3.00573 0,0.12259 0.0546,0.1145 0.67733,-0.10025 z m 6.94267,0 c 0.95602,-0.3297 1.76195,-1.28693 2.41166,-2.8644 0.27706,-0.67267 0.40485,-1.55345 0.24814,-1.71017 -0.21833,-0.21833 -1.06654,0.56312 -1.81167,1.66909 -0.41824,0.62077 -1.52547,2.80242 -1.52547,3.00573 0,0.12259 0.0546,0.1145 0.67734,-0.10025 z m -4.63391,-13.04109 c 0.86574,-1.62952 1.35619,-2.9004 1.57846,-4.09012 0.14961,-0.80082 -0.2147,-0.34348 -0.79534,0.99843 -0.35589,0.8225 -1.39855,3.74921 -1.39855,3.92569 0,0.19974 0.23646,-0.1207 0.61543,-0.834 z m 6.94267,0 c 0.86574,-1.62952 1.35618,-2.9004 1.57845,-4.09012 0.14962,-0.80082 -0.2147,-0.34348 -0.79533,0.99843 -0.35589,0.8225 -1.39855,3.74921 -1.39855,3.92569 0,0.19974 0.23646,-0.1207 0.61543,-0.834 z m -72.92269,22.11725 c -0.359653,-0.35966 -0.204632,-2.04208 0.510812,-5.54375 0.3153,-1.5432 1.62728,-7.54336 1.7422,-7.96769 0.0527,-0.19471 -0.75744,-0.26335 -3.549254,-0.30067 l -1.086494,-0.0145 -0.742341,1.43211 c -1.579651,3.04743 -3.820363,6.44848 -4.444548,6.74613 -1.053446,0.50236 -2.000803,0.0391 -2.620511,-1.28151 -0.810468,-1.72708 -1.028161,-4.94048 -0.470911,-6.9512 0.546947,-1.97354 2.020453,-3.53203 3.620835,-3.82965 1.092193,-0.20311 3.181937,0.35781 2.790679,0.74907 -0.09673,0.0967 -0.194668,0.0854 -0.619881,-0.072 -0.826624,-0.30592 -2.374015,-0.27981 -3.002147,0.0507 -1.070476,0.5632 -1.993199,1.82794 -2.386138,3.27059 -0.283927,1.04242 -0.284421,3.84111 -9.09e-4,5.1441 0.293713,1.34987 0.7477,2.23829 1.286034,2.51668 0.393308,0.20339 1.041733,0.16542 1.330935,-0.0779 0.708156,-0.59587 3.294072,-4.67821 4.394156,-6.93698 l 0.377212,-0.77452 -2.667368,-0.0847 c -2.352803,-0.0747 -2.684752,-0.10207 -2.814776,-0.23223 -0.287738,-0.28804 -0.05062,-0.30949 2.554668,-0.23106 1.397,0.0421 2.674939,0.0778 2.839863,0.0794 0.282149,0.003 0.313795,-0.0258 0.535727,-0.48393 0.880389,-1.81715 6.482619,-12.5886 6.784899,-13.04538 0.24142,-0.36481 0.6767,-0.69178 0.92092,-0.69178 0.0767,0 0.21491,0.12382 0.30719,0.27516 0.35117,0.57596 0.2532,1.12772 -1.74327,9.81861 -0.53185,2.31519 -0.967,4.22376 -0.967,4.24126 0,0.0175 0.81903,0.058 1.82006,0.09 1.00104,0.032 1.87734,0.0801 1.94734,0.10696 0.15345,0.0589 0.17089,0.36601 0.0214,0.3776 -0.24795,0.0192 -1.71466,-0.013 -2.77553,-0.0609 l -1.1457,-0.0518 -0.66428,2.9944 c -1.41406,6.3742 -2.05398,10.03564 -1.798603,10.29102 0.03233,0.0323 0.167433,-0.0714 0.300223,-0.23042 0.20824,-0.24943 0.26008,-0.27373 0.37702,-0.17668 0.16167,0.13418 0.0399,0.43767 -0.29642,0.73904 -0.30599,0.27415 -0.478359,0.3043 -0.666132,0.11653 z m 2.559322,-14.81555 c 1.80335,-7.72109 2.70088,-11.86155 2.71915,-12.5439 0.0414,-1.54442 -0.24122,-1.06002 -6.589563,11.29586 l -0.902644,1.75684 0.409327,0.0119 c 0.225131,0.007 1.209428,0.0379 2.18733,0.0696 0.9779,0.0318 1.83431,0.0547 1.90314,0.0508 0.0844,-0.005 0.17336,-0.21343 0.27326,-0.64115 z m 52.728018,14.81555 c -0.35965,-0.35966 -0.20463,-2.04208 0.51081,-5.54375 0.3153,-1.5432 1.62728,-7.54336 1.7422,-7.96769 0.0527,-0.19471 -0.75744,-0.26335 -3.54925,-0.30067 l -1.0865,-0.0145 -0.74234,1.43211 c -1.57965,3.04743 -3.82036,6.44848 -4.44455,6.74613 -1.05344,0.50236 -2.0008,0.0391 -2.62051,-1.28151 -0.81046,-1.72708 -1.02816,-4.94048 -0.47091,-6.9512 0.54695,-1.97354 2.02046,-3.53203 3.62084,-3.82965 1.09219,-0.20311 3.18194,0.35781 2.79068,0.74907 -0.0967,0.0967 -0.19467,0.0854 -0.61988,-0.072 -0.82663,-0.30592 -2.37402,-0.27981 -3.00215,0.0507 -1.07048,0.5632 -1.9932,1.82794 -2.38614,3.27059 -0.28393,1.04242 -0.28442,3.84111 -9.1e-4,5.1441 0.29372,1.34987 0.7477,2.23829 1.28604,2.51668 0.39331,0.20339 1.04173,0.16542 1.33093,-0.0779 0.70816,-0.59587 3.29407,-4.67821 4.39416,-6.93698 l 0.37721,-0.77452 -2.66737,-0.0847 c -2.3528,-0.0747 -2.68475,-0.10207 -2.81477,-0.23223 -0.28774,-0.28804 -0.0506,-0.30949 2.55467,-0.23106 1.397,0.0421 2.67493,0.0778 2.83986,0.0794 0.28215,0.003 0.31379,-0.0258 0.53573,-0.48393 0.88038,-1.81715 6.48261,-12.5886 6.78489,-13.04538 0.24142,-0.36481 0.6767,-0.69178 0.92092,-0.69178 0.0767,0 0.21491,0.12382 0.30719,0.27516 0.35117,0.57596 0.2532,1.12772 -1.74327,9.81861 -0.53185,2.31519 -0.96699,4.22376 -0.96699,4.24126 0,0.0175 0.81902,0.058 1.82006,0.09 1.00103,0.032 1.87733,0.0801 1.94733,0.10696 0.15345,0.0589 0.17089,0.36601 0.0214,0.3776 -0.24795,0.0192 -1.71466,-0.013 -2.77553,-0.0609 l -1.1457,-0.0518 -0.66428,2.9944 c -1.41406,6.3742 -2.05398,10.03564 -1.7986,10.29102 0.0323,0.0323 0.16743,-0.0714 0.30022,-0.23042 0.20824,-0.24943 0.26009,-0.27373 0.37702,-0.17668 0.16167,0.13418 0.04,0.43767 -0.29642,0.73904 -0.30599,0.27415 -0.47836,0.3043 -0.66613,0.11653 z m 2.55932,-14.81555 c 1.80335,-7.72109 2.70088,-11.86155 2.71915,-12.5439 0.0414,-1.54442 -0.24122,-1.06002 -6.58956,11.29586 l -0.90265,1.75684 0.40933,0.0119 c 0.22513,0.007 1.20943,0.0379 2.18733,0.0696 0.9779,0.0318 1.83431,0.0547 1.90314,0.0508 0.0844,-0.005 0.17336,-0.21343 0.27326,-0.64115 z"
       id="path248" /></g></svg>
